<?xml version="1.0" standalone="no"?>
<!DOCTYPE svg PUBLIC "-//W3C//DTD SVG 1.1//EN" "http://www.w3.org/Graphics/SVG/1.1/DTD/svg11.dtd" >
<svg>
<metadata>
Created by FontForge 20120731 at Thu Sep 29 20:29:53 2016
 By ,,,
No Rights Reserved.
</metadata>
<defs>
<font id="Ferrum" horiz-adv-x="461" >
  <font-face 
    font-family="Ferrum"
    font-weight="400"
    font-stretch="extra-condensed"
    units-per-em="1000"
    panose-1="0 0 0 0 0 0 0 0 0 0"
    ascent="844"
    descent="-156"
    x-height="582"
    cap-height="822"
    bbox="-9 -220 1033 932"
    underline-thickness="50"
    underline-position="-50"
    unicode-range="U+0020-201D"
  />
<missing-glyph horiz-adv-x="176" 
 />
    <glyph glyph-name=".notdef" horiz-adv-x="176" 
 />
    <glyph glyph-name=".null" horiz-adv-x="0" 
 />
    <glyph glyph-name="nonmarkingreturn" horiz-adv-x="333" 
 />
    <glyph glyph-name="space" unicode=" " horiz-adv-x="252" 
 />
    <glyph glyph-name="exclam" unicode="!" horiz-adv-x="336" 
d="M224 46q0 23 -16.5 39.5t-39.5 16.5t-39.5 -16.5t-16.5 -39.5t16.5 -39.5t39.5 -16.5t39.5 16.5t16.5 39.5zM192 181h-48l-2 2q-16 413 -32 573q-8 75 58 75t58 -75q-15 -138 -32 -573z" />
    <glyph glyph-name="quotedbl" unicode="&#x22;" horiz-adv-x="350" 
d="M73 875q26 0 43 -17t17 -51q0 -38 -26.5 -74.5t-67.5 -61.5l-10 11v2q22 35 29 57.5t7 52.5q0 43 -28 56l-2 2v17q20 6 38 6zM213 875q26 0 43 -17t17 -51q0 -38 -26.5 -74.5t-67.5 -61.5l-10 11v2q22 35 29 57.5t7 52.5q0 43 -28 56l-2 2v17q20 6 38 6z" />
    <glyph glyph-name="numbersign" unicode="#" 
d="M398 600l2 -2l-4 -64l-2 -2h-90l-12 -222h88l2 -2l-5 -64l-2 -2h-88l-15 -264l-2 -2h-26l-2 2l15 264h-69l-15 -264l-2 -2h-26l-2 2l15 264h-84l-2 2l5 64l2 2h84l12 222h-82l-2 2l4 64l2 2h82l14 242l2 2h26l2 -2l-14 -242h69l14 242l2 2h26l2 -2l-14 -242h90zM262 310
l12 222h-69l-12 -222h69z" />
    <glyph glyph-name="dollar" unicode="$" 
d="M219 46q32 0 53.5 28.5t21.5 86.5q0 95 -75 189q-68 84 -101.5 149t-33.5 128q0 153 122 182v121l2 2h36l2 -2v-121q62 0 105 -36q-1 -42 -1 -161h-25l-2 1q-5 73 -26 114q-23 47 -69 47q-59 0 -59 -103q0 -62 23 -107.5t67 -94.5q125 -142 125 -260q0 -80 -39 -127
t-99 -65v-129l-2 -2h-36l-2 2v124q-80 0 -128 40q1 42 1 158h25l2 -1q11 -72 30 -112q27 -51 83 -51z" />
    <glyph glyph-name="percent" unicode="%" 
d="M412 847l-325 -866l-2 -1l-26 9l-1 2l325 866l2 1l26 -9zM325 328q53 0 84 -49t31 -114q0 -79 -31 -128t-88 -49q-52 0 -82.5 42t-30.5 112q0 84 31 135t86 51zM325 17q43 0 43 139q0 141 -45 141q-43 0 -43 -151q0 -129 45 -129zM138 822q53 0 84 -49t31 -114
q0 -79 -31 -128t-88 -49q-52 0 -82.5 42t-30.5 112q0 84 31 135t86 51zM138 511q43 0 43 139q0 141 -45 141q-43 0 -43 -151q0 -129 45 -129z" />
    <glyph glyph-name="ampersand" unicode="&#x26;" horiz-adv-x="520" 
d="M477 16l1 -2v-16q-28 2 -137 2l-2 2q-8 34 -16 59q-34 -73 -111 -73q-58 0 -100 58t-42 179q0 71 27.5 142t67.5 120q-23 47 -40.5 105t-17.5 95q0 67 33 106t88 39q51 0 81.5 -36t30.5 -85q0 -107 -105 -195l114 -275q22 129 22 186q0 30 -27 43l-1 2v16q28 -2 63 -2
q31 0 59 2v-16l-1 -2q-18 -3 -30.5 -16.5t-15.5 -32.5q-18 -99 -48 -233q27 -85 64 -136q16 -25 43 -36zM224 797q-37 0 -37 -78t35 -167q41 61 41 134q0 111 -39 111zM244 69q41 0 61 44l-123 332q-28 -56 -28 -152q0 -104 27 -164t63 -60z" />
    <glyph glyph-name="quotesingle" unicode="'" horiz-adv-x="210" 
d="M73 875q26 0 43 -17t17 -51q0 -38 -26.5 -74.5t-67.5 -61.5l-10 11v2q22 35 29 57.5t7 52.5q0 43 -28 56l-2 2v17q20 6 38 6z" />
    <glyph glyph-name="parenleft" unicode="(" horiz-adv-x="346" 
d="M102 410q0 113 19 199.5t50 136t67 74t74 24.5h19l2 -2v-16l-2 -2h-10q-80 0 -130 -102.5t-50 -311.5t50 -311.5t130 -102.5h10l2 -2v-16l-2 -2h-19q-38 0 -74 24.5t-67 74t-50 136t-19 199.5z" />
    <glyph glyph-name="parenright" unicode=")" horiz-adv-x="346" 
d="M244 410q0 -113 -19 -199.5t-50 -136t-67 -74t-74 -24.5h-19l-2 2v16l2 2h10q80 0 130 102.5t50 311.5t-50 311.5t-130 102.5h-10l-2 2v16l2 2h19q38 0 74 -24.5t67 -74t50 -136t19 -199.5z" />
    <glyph glyph-name="asterisk" unicode="*" horiz-adv-x="414" 
d="M211 600h-8l-1 1l-3 35q-4 40 -24 51l-1 1v8q14 8 27 23q0 7 -4 11q-5 5 -5 9q0 6 5 10q4 4 8 10h4q4 -6 8 -10q5 -4 5 -10q0 -4 -5 -9q-4 -4 -4 -11q13 -15 27 -23v-8l-1 -1q-20 -11 -24 -51l-3 -35zM189 590l-2 -8h-2l-34 8q-40 8 -56 -7l-1 -1l-8 2q-2 15 -13 33
q-7 3 -12 0q-5 -4 -10 -2q-6 2 -8 8q-3 7 -7 10l1 4q6 2 12 5t11 1q5 -1 7 -7q3 -6 10 -7q17 6 30 18l7 -2l1 -2q4 -22 41 -38l32 -14zM192 566l6 -5l1 -1l-19 -30q-20 -35 -10 -55v-2l-5 -6q-18 1 -35 -3q-4 -6 -3 -11q0 -9 -1 -11q-4 -4 -10 -5q-8 0 -13 -3l-3 2
q1 6 -1 13q-1 6 2 11q3 4 10 4q5 1 9 7q-2 22 -8 34l5 7h1q23 -3 50 27l23 27h1zM225 590l2 -8h2l34 8q39 8 56 -7l1 -1l8 2q2 15 13 33q7 3 12 0q5 -4 10 -2q6 2 8 8q3 7 7 10l-1 4q-6 2 -12 5t-11 1q-5 -1 -7 -7q-3 -6 -10 -7q-17 6 -30 18l-7 -2l-1 -2q-4 -22 -41 -38
l-33 -14v-1zM222 566l-7 -5v-1l18 -30q22 -35 11 -55v-2l4 -6q19 1 36 -3q4 -6 3 -11q-2 -7 1 -11q4 -4 10 -5q7 0 13 -3l3 2q-1 5 0 13q1 7 -1 11q-3 4 -10 4q-5 1 -9 7q0 18 8 34l-5 7h-1q-23 -3 -50 27l-23 27h-1zM215 580q0 8 -8 8t-8 -8t8 -8t8 8z" />
    <glyph glyph-name="plus" unicode="+" horiz-adv-x="430" 
d="M397 304l2 -2v-24l-2 -2h-167v-176l-2 -2h-26l-2 2v176h-167l-2 2v24l2 2h167v178l2 2h26l2 -2v-178h167z" />
    <glyph glyph-name="comma" unicode="," horiz-adv-x="186" 
d="M76 138q28 0 45 -19.5t17 -54.5q0 -38 -29 -73.5t-71 -58.5l-12 13v2q22 35 28.5 57t6.5 53q0 43 -26 55l-2 2v18q20 6 43 6z" />
    <glyph glyph-name="hyphen" unicode="-" horiz-adv-x="289" 
d="M219 240h-138q-16 0 -25 -2l-4 3q6 13 11 37q1 4 7 4h138q16 0 25 2l4 -3q-6 -13 -11 -37q-3 -4 -7 -4z" />
    <glyph glyph-name="period" unicode="." horiz-adv-x="208" 
d="M160 46q0 -23 -16.5 -39.5t-39.5 -16.5t-39.5 16.5t-16.5 39.5t16.5 39.5t39.5 16.5t39.5 -16.5t16.5 -39.5z" />
    <glyph glyph-name="slash" unicode="/" horiz-adv-x="287" 
d="M296 848l-276 -867l-2 -1l-26 8l-1 2l276 867l2 1l26 -8z" />
    <glyph glyph-name="zero" unicode="0" 
d="M235 832q86 0 133.5 -111t47.5 -301q0 -210 -51.5 -321t-142.5 -111q-85 0 -131 104.5t-46 307.5q0 208 49.5 320t140.5 112zM226 798q-42 0 -59.5 -86t-17.5 -292q0 -90 2 -134q10 48 25.5 84t51.5 93q80 126 73 182q-16 153 -75 153zM232 22q45 0 62.5 86.5t17.5 291.5
q0 96 -4 167q-16 -86 -67 -164q-60 -91 -75 -137t-9 -88q12 -89 28.5 -122.5t46.5 -33.5z" />
    <glyph glyph-name="one" unicode="1" 
d="M296 835h3l9 -4l1 -3q-8 -79 -8 -418q0 -300 7 -351q5 -33 37 -43l1 -2v-16q-28 2 -88 2t-88 -2v16l1 2q32 10 37 43q7 51 7 351q0 192 -2 246.5t-8 63.5q-15 18 -73 23l-1 2v14l1 2q92 22 164 74z" />
    <glyph glyph-name="two" unicode="2" 
d="M122 684l-2 -1h-25q-4 50 -4 83q66 66 158 66q65 0 107 -49t42 -118q0 -60 -27.5 -130.5t-110.5 -222.5q-64 -118 -109 -231q109 0 179 3q26 2 39 13.5t21 43.5l2 1h25q-11 -72 -12 -144q-61 2 -172 2q-119 0 -180 -2l-2 2q58 99 103 197q79 168 109.5 259t30.5 166
q0 69 -25.5 113t-69.5 44q-39 0 -62 -36q-12 -19 -15 -59z" />
    <glyph glyph-name="three" unicode="3" 
d="M187 23q49 0 76.5 50t27.5 130q0 86 -28.5 134t-103.5 72l-2 2l-4 21l1 3q67 33 97 79t30 118q0 57 -24 102t-67 45q-40 0 -62 -36q-12 -19 -15 -59l-2 -1h-25q-4 36 -4 83q34 34 69 50t87 16q63 0 103.5 -51.5t40.5 -117.5q0 -72 -45 -132t-116 -90q82 -15 129 -76
t47 -139q0 -106 -62.5 -172t-160.5 -66q-73 0 -118 51q0 44 6 98h25l2 -1q8 -45 20 -67q25 -46 78 -46z" />
    <glyph glyph-name="four" unicode="4" 
d="M413 302l5 -4q-3 -23 -11 -55q-3 -8 -20 -10q-27 2 -54 0q0 -125 7 -174q5 -33 37 -43l1 -2v-16q-28 2 -88 2t-88 -2v16l1 2q32 10 37 43q7 49 7 174q-116 3 -207 0l-6 5q66 124 153.5 311t130.5 291h3l19 -4l1 -3q-7 -169 -7 -534q51 0 79 3zM247 500q0 60 7 110
l-149 -310q72 -5 143 0z" />
    <glyph glyph-name="five" unicode="5" 
d="M129 467l-35 2l-2 2q11 165 9 351q30 -2 132 -2q85 0 117 2l1 -2q-4 -50 -4 -120h-25l-2 1q-10 41 -41 44q-48 3 -139 3q-5 -117 0 -240q118 -7 181.5 -75.5t63.5 -174.5q0 -118 -62.5 -194t-153.5 -76q-76 0 -118 57q0 38 6 92h25l2 -1q6 -44 19 -66q29 -47 73 -47
q46 0 75.5 53.5t29.5 153.5q0 101 -40.5 165.5t-111.5 71.5z" />
    <glyph glyph-name="six" unicode="6" 
d="M246 483q70 0 113 -67t43 -175q0 -112 -53.5 -182.5t-136.5 -70.5q-73 0 -116.5 85.5t-43.5 248.5q0 249 56.5 379.5t168.5 130.5q58 0 98 -41q-4 -32 -4 -108h-25l-2 1q-7 52 -20 75q-21 38 -57 38q-61 0 -89 -81t-33 -281q36 48 101 48zM232 22q31 0 53.5 48.5
t22.5 141.5q0 107 -25 165.5t-64 58.5q-27 0 -50 -21.5t-23 -61.5q0 -331 86 -331z" />
    <glyph glyph-name="seven" unicode="7" 
d="M425 820q-110 -276 -270 -820l-2 -2q-18 0 -38 -2q-4 0 -7 4t-2 8q35 92 113 329t128 400q-165 0 -213 -3q-36 -3 -46 -54l-2 -1h-25q0 91 -4 141l1 2q32 -2 207 -2q128 0 158 2z" />
    <glyph glyph-name="eight" unicode="8" 
d="M272 472q130 -157 130 -270q0 -102 -51 -158t-132 -56q-72 0 -116 50t-44 139q0 153 129 270q-52 64 -75 108.5t-23 95.5q0 85 42.5 133t113.5 48q60 0 99.5 -43.5t39.5 -111.5q0 -113 -113 -205zM239 797q-33 0 -50 -32t-17 -85q0 -88 75 -180q62 66 62 152
q0 72 -19 108.5t-51 36.5zM227 22q37 0 59 38t22 116q0 104 -94 238q-35 -44 -49.5 -89.5t-14.5 -110.5q0 -192 77 -192z" />
    <glyph glyph-name="nine" unicode="9" 
d="M215 337q-70 0 -113 67t-43 175q0 112 53.5 182.5t136.5 70.5q73 0 116.5 -85.5t43.5 -248.5q0 -249 -56.5 -379.5t-168.5 -130.5q-58 0 -98 41q4 48 4 108h25l2 -1q7 -52 20 -75q21 -38 57 -38q61 0 88.5 80.5t33.5 281.5q-36 -48 -101 -48zM229 798q-31 0 -53.5 -48.5
t-22.5 -141.5q0 -107 25 -165.5t64 -58.5q27 0 50 21.5t23 61.5q0 163 -22.5 247t-63.5 84z" />
    <glyph glyph-name="colon" unicode=":" horiz-adv-x="270" 
d="M191 82q0 -23 -16.5 -39.5t-39.5 -16.5t-39.5 16.5t-16.5 39.5t16.5 39.5t39.5 16.5t39.5 -16.5t16.5 -39.5zM191 470q0 -23 -16.5 -39.5t-39.5 -16.5t-39.5 16.5t-16.5 39.5t16.5 39.5t39.5 16.5t39.5 -16.5t16.5 -39.5z" />
    <glyph glyph-name="semicolon" unicode=";" horiz-adv-x="270" 
d="M117 138q28 0 45 -19.5t17 -54.5q0 -38 -29 -73.5t-71 -58.5l-12 13v2q22 35 28.5 57t6.5 53q0 43 -26 55l-2 2v18q20 6 43 6zM191 470q0 -23 -16.5 -39.5t-39.5 -16.5t-39.5 16.5t-16.5 39.5t16.5 39.5t39.5 16.5t39.5 -16.5t16.5 -39.5z" />
    <glyph glyph-name="less" unicode="&#x3c;" horiz-adv-x="446" 
d="M66 361q115 108 299 299h2l17 -17v-2q-154 -154 -267 -281q104 -118 267 -281v-2l-17 -17h-2q-168 175 -299 299v2z" />
    <glyph glyph-name="equal" unicode="=" horiz-adv-x="367" 
d="M283 330h-178q-16 0 -25 -2l-4 3q6 13 11 37q1 4 7 4h178q16 0 25 2l4 -3q-6 -13 -11 -37q-3 -4 -7 -4zM273 210h-178q-16 0 -25 -2l-4 3q6 13 11 37q1 4 7 4h178q16 0 25 2l4 -3q-6 -13 -11 -37q-3 -4 -7 -4z" />
    <glyph glyph-name="greater" unicode="&#x3e;" horiz-adv-x="446" 
d="M380 361v-2q-145 -138 -299 -299h-2l-17 17v2q152 152 267 281q-126 140 -267 281v2l17 17h2q170 -179 299 -299z" />
    <glyph glyph-name="question" unicode="?" horiz-adv-x="381" 
d="M216 46q0 23 -16.5 39.5t-39.5 16.5t-39.5 -16.5t-16.5 -39.5t16.5 -39.5t39.5 -16.5t39.5 16.5t16.5 39.5zM245 420q-38 -67 -51.5 -110t-16.5 -105l-2 -2h-33l-2 2q6 97 37 177q35 90 47.5 139t12.5 99q0 72 -22 115.5t-60 43.5q-39 0 -58 -36q-12 -22 -15 -59l-2 -1
h-25q0 44 -4 88q53 61 134 61q65 0 106 -48.5t41 -120.5q0 -52 -20 -107t-67 -136z" />
    <glyph glyph-name="at" unicode="@" horiz-adv-x="846" 
d="M414 -38q106 0 224 64h3l12 -22l-1 -3q-64 -42 -124.5 -60t-136.5 -18q-126 0 -221.5 88t-95.5 229q0 187 125 315.5t303 128.5q130 0 216.5 -92t86.5 -218q0 -138 -76 -213.5t-193 -75.5q-66 0 -94 -2v15l1 2q23 6 23 30q0 22 -5 124q-26 2 -46 2q-7 0 -46 -3
q-27 -67 -39 -109q-10 -35 10 -44l1 -2v-15q-18 2 -52 2q-27 0 -45 -2v15l1 2q13 4 20.5 13.5t16.5 29.5q97 226 153 378l3 4q40 21 72 50h9q8 -203 27 -420q2 -20 8.5 -27.5t23.5 -7.5q81 0 132 65t51 163q0 124 -73.5 210.5t-200.5 86.5q-147 0 -256 -112.5t-109 -269.5
q0 -140 79.5 -220.5t212.5 -80.5zM460 284l-8 178q-29 -65 -72 -178q22 -2 38 -2t42 2z" />
    <glyph glyph-name="A" unicode="A" horiz-adv-x="495" 
d="M167 340q-32 -176 -45 -286q-2 -18 5 -26t25 -12l1 -2v-16q-28 2 -57 2q-40 0 -68 -2v16l1 2q32 10 41 46q36 158 135 724l5 5q40 22 68 47h13q70 -488 131 -779q7 -37 41 -43l1 -2v-16q-28 2 -92 2q-53 0 -81 -2v16l1 2q29 4 25 35q-18 147 -45 289q-30 2 -56 2
q-19 0 -49 -2zM216 374q16 0 52 2q-22 126 -45 315q-28 -176 -52 -315q32 -2 45 -2z" />
    <glyph glyph-name="B" unicode="B" horiz-adv-x="481" 
d="M207 788q-4 -77 -4 -355h27q93 0 93 186q0 169 -92 169h-24zM242 28q88 0 88 198q0 179 -101 179h-26q0 -305 6 -346q5 -31 33 -31zM429 237q0 -116 -54.5 -179.5t-138.5 -59.5q-40 2 -76 2q-60 0 -88 -2v16l1 2q32 10 37 43q7 51 7 351t-7 351q-5 33 -37 43l-1 2v16
q28 -2 88 -2q43 0 89 2q86 3 129.5 -52t43.5 -139q0 -79 -36.5 -135.5t-96.5 -66.5q61 -7 100.5 -57.5t39.5 -134.5z" />
    <glyph glyph-name="C" unicode="C" horiz-adv-x="444" 
d="M262 -12q-91 0 -152.5 103.5t-61.5 308.5q0 204 63 318t161 114q74 0 125 -45q-1 -42 -1 -153h-25l-2 1q-7 65 -28 105q-15 29 -30 42t-43 13q-37 0 -61.5 -33t-39.5 -118t-15 -224q0 -151 15.5 -240.5t41.5 -122t65 -32.5q42 0 68 53q20 38 27 107l2 1h25q0 -79 2 -153
q-45 -45 -136 -45z" />
    <glyph glyph-name="D" unicode="D" horiz-adv-x="507" 
d="M160 820q49 0 83 2q100 5 158 -88t58 -288q0 -123 -19 -213.5t-52.5 -141.5t-75 -74t-89.5 -19q-26 2 -63 2q-60 0 -88 -2v16l1 2q32 10 37 43q7 51 7 351t-7 351q-5 33 -37 43l-1 2v16q28 -2 88 -2zM247 29q35 0 58 34.5t36.5 126t13.5 244.5q0 196 -28.5 277t-84.5 81
q-20 0 -37 -3q-2 -40 -2 -379q0 -244 4 -343q2 -38 40 -38z" />
    <glyph glyph-name="E" unicode="E" horiz-adv-x="454" 
d="M160 820q148 0 210 2q0 -118 6 -230h-25l-2 1q-13 92 -37 141q-28 54 -81 54h-24q-4 -77 -4 -362h33q33 0 46 29q12 27 19 86l2 1h25q-2 -46 -2 -130t2 -130h-25l-2 1q-7 59 -19 86q-13 29 -46 29h-33q0 -264 5 -331q3 -35 44 -35q24 0 39 12t30 40q24 48 37 143l2 1h25
q-6 -112 -6 -230q-59 2 -219 2q-60 0 -88 -2v16l1 2q32 10 37 43q7 51 7 351t-7 351q-5 33 -37 43l-1 2v16q28 -2 88 -2z" />
    <glyph glyph-name="F" unicode="F" horiz-adv-x="427" 
d="M203 398q0 -288 7 -339q5 -33 37 -43l1 -2v-16q-28 2 -88 2t-88 -2v16l1 2q32 10 37 43q7 51 7 351t-7 351q-5 33 -37 43l-1 2v16q28 -2 88 -2q148 0 210 2q0 -118 6 -230h-25l-2 1q-13 92 -37 141q-28 54 -81 54h-24q-4 -77 -4 -362h33q33 0 46 29q12 27 19 86l2 1h25
q-2 -46 -2 -130t2 -130h-25l-2 1q-7 59 -19 86q-13 29 -46 29h-33z" />
    <glyph glyph-name="G" unicode="G" horiz-adv-x="485" 
d="M265 25q19 0 34 9t15 23q0 205 -6 252q-6 38 -32 48l-1 2v16q28 -2 73 -2q50 0 78 2v-16l-1 -2q-14 -8 -18 -42q-7 -68 -7 -263q0 -10 5 -20l1 -3v-10q-67 -31 -148 -31q-91 0 -150.5 100.5t-59.5 311.5q0 205 62.5 318.5t160.5 113.5q73 0 124 -45q-1 -42 -1 -153h-25
l-2 1q-7 65 -28 105q-15 30 -30 42.5t-42 12.5q-56 0 -85 -85.5t-29 -289.5q0 -151 14.5 -240.5t38 -122t59.5 -32.5z" />
    <glyph glyph-name="H" unicode="H" horiz-adv-x="572" 
d="M203 437q45 -3 83 -3t83 3q0 275 -7 324q-5 33 -37 43l-1 2v16q28 -2 88 -2t88 2v-16l-1 -2q-32 -10 -37 -43q-7 -51 -7 -351t7 -351q5 -33 37 -43l1 -2v-16q-28 2 -88 2t-88 -2v16l1 2q32 10 37 43q7 51 7 340q-45 3 -83 3t-83 -3q0 -289 7 -340q5 -33 37 -43l1 -2v-16
q-28 2 -88 2t-88 -2v16l1 2q32 10 37 43q7 51 7 351t-7 351q-5 33 -37 43l-1 2v16q28 -2 88 -2t88 2v-16l-1 -2q-32 -10 -37 -43q-7 -49 -7 -324z" />
    <glyph glyph-name="I" unicode="I" horiz-adv-x="320" 
d="M160 820q60 0 88 2v-16l-1 -2q-32 -10 -37 -43q-7 -51 -7 -351t7 -351q5 -33 37 -43l1 -2v-16q-28 2 -88 2t-88 -2v16l1 2q32 10 37 43q7 51 7 351t-7 351q-5 33 -37 43l-1 2v16q28 -2 88 -2z" />
    <glyph glyph-name="J" unicode="J" horiz-adv-x="336" 
d="M62 -84l-8 16l1 3q43 28 62 66t23 114q3 54 3 292q0 303 -7 354q-5 33 -37 43l-1 2v16q28 -2 88 -2t88 2v-16l-1 -2q-32 -10 -37 -43q-7 -51 -7 -351q0 -152 3 -205q8 -124 -34 -192t-134 -98z" />
    <glyph glyph-name="K" unicode="K" horiz-adv-x="503" 
d="M203 404q1 -307 7 -345q5 -33 37 -43l1 -2v-16q-28 2 -88 2t-88 -2v16l1 2q32 10 37 43q7 51 7 351t-7 351q-5 33 -37 43l-1 2v16q28 -2 88 -2t88 2v-16l-1 -2q-32 -10 -37 -43q-7 -47 -7 -331q112 202 158 332q11 28 -9 42l-1 2v16q28 -2 57 -2q36 0 64 2v-16l-1 -2
q-30 -11 -52 -45q-71 -118 -144 -281q99 -268 171 -414q20 -40 53 -48l1 -2v-16q-28 2 -153 2l-2 2q-57 176 -142 402z" />
    <glyph glyph-name="L" unicode="L" horiz-adv-x="434" 
d="M203 410q0 -276 5 -343q3 -35 44 -35q24 0 39 12t30 40q24 48 37 143l2 1h25q-6 -112 -6 -230q-59 2 -219 2q-60 0 -88 -2v16l1 2q32 10 37 43q7 51 7 351t-7 351q-5 33 -37 43l-1 2v16q28 -2 88 -2t88 2v-16l-1 -2q-32 -10 -37 -43q-7 -51 -7 -351z" />
    <glyph glyph-name="M" unicode="M" horiz-adv-x="690" 
d="M471 820q119 0 147 2v-16l-1 -2q-32 -10 -37 -43q-7 -51 -7 -351t7 -351q5 -33 37 -43l1 -2v-16q-28 2 -88 2t-88 -2v16l1 2q32 10 37 43q7 51 7 351q0 250 3 290q-42 -143 -80 -309q-50 -213 -87 -399l-2 -1h-16l-2 1q-60 317 -154 650q3 -124 3 -232q0 -300 7 -351
q5 -33 37 -43l1 -2v-16q-28 2 -66 2t-66 -2v16l1 2q32 10 37 43q7 51 7 351v303q0 36 -14.5 60.5t-29.5 30.5l-1 2v16q28 -2 90 -2h47q30 -154 139 -567q116 484 130 567z" />
    <glyph glyph-name="N" unicode="N" horiz-adv-x="502" 
d="M356 410q0 300 -7 351q-5 33 -37 43l-1 2v16q28 -2 66 -2t66 2v-16l-1 -2q-32 -10 -37 -43q-7 -51 -7 -351q0 -301 2 -422h-16l-2 1q-129 386 -232 653q3 -124 3 -232q0 -300 7 -351q5 -33 37 -43l1 -2v-16q-28 2 -66 2t-66 -2v16l1 2q32 10 37 43q7 51 7 351v303
q0 36 -14.5 60.5t-29.5 30.5l-1 2v16q28 -2 90 -2h39q16 -75 115 -341q35 -92 49 -167q-3 51 -3 98z" />
    <glyph glyph-name="O" unicode="O" horiz-adv-x="479" 
d="M244 832q88 0 137.5 -108.5t49.5 -303.5q0 -213 -53.5 -322.5t-146.5 -109.5q-86 0 -134.5 103.5t-48.5 308.5q0 208 51 320t145 112zM240 23q48 0 67.5 87t19.5 290q0 210 -19.5 303.5t-73.5 93.5q-45 0 -63.5 -85.5t-18.5 -291.5q0 -156 9 -242t27.5 -120.5t51.5 -34.5
z" />
    <glyph glyph-name="P" unicode="P" horiz-adv-x="452" 
d="M203 415q0 -305 7 -356q5 -33 37 -43l1 -2v-16q-28 2 -88 2t-88 -2v16l1 2q32 10 37 43q7 51 7 351t-7 351q-5 33 -37 43l-1 2v16q28 -2 88 -2q43 0 89 2q87 3 133 -51t46 -137q0 -99 -54.5 -158.5t-135.5 -70.5q-9 7 -13 19q-2 6 6 10q52 17 75 61t23 127q0 84 -26 125
t-72 41h-24q-4 -77 -4 -373z" />
    <glyph glyph-name="Q" unicode="Q" horiz-adv-x="491" 
d="M1025 -87l8 -11v-3q-89 -67 -149.5 -93t-126.5 -26q-89 0 -254 85q-140 72 -252 72q-62 0 -136 -42h-3l-11 14v3q62 53 133 79q-86 2 -136 102.5t-50 306.5q0 208 51 320t145 112q88 0 137.5 -108.5t49.5 -303.5q0 -357 -148 -422q15 6 31 6q90 0 234 -70
q181 -89 262 -89q61 0 105.5 13.5t106.5 54.5h3zM152 420q0 -156 9 -242t27.5 -120.5t51.5 -34.5q48 0 67.5 87t19.5 290q0 210 -19.5 303.5t-73.5 93.5q-45 0 -63.5 -85.5t-18.5 -291.5z" />
    <glyph glyph-name="R" unicode="R" horiz-adv-x="500" 
d="M463 16l1 -2v-16q-28 2 -137 2l-2 2q-30 207 -44 337q-2 24 -6 38.5t-15.5 26t-30.5 11.5h-26q0 -305 7 -356q5 -33 37 -43l1 -2v-16q-28 2 -88 2t-88 -2v16l1 2q32 10 37 43q7 51 7 351t-7 351q-5 33 -37 43l-1 2v16q28 -2 88 -2q43 0 89 2q86 3 130 -50.5t44 -137.5
q0 -78 -36.5 -131.5t-97.5 -63.5q48 -4 66 -24.5t25 -74.5q22 -163 44 -274q3 -18 14.5 -32t24.5 -18zM230 443q94 0 94 179q0 166 -93 166h-24q-4 -77 -4 -345h27z" />
    <glyph glyph-name="S" unicode="S" horiz-adv-x="419" 
d="M229 797q-26 0 -43 -28.5t-17 -68.5q0 -79 17 -126t64 -108q109 -142 109 -251q0 -108 -49.5 -167.5t-121.5 -59.5q-77 0 -121 42q1 42 1 156h25l2 -1q11 -76 30 -112q26 -50 64 -50q75 0 75 133q0 56 -18.5 108t-67.5 118q-95 129 -95 235q0 110 41.5 162.5t107.5 52.5
t106 -40q-1 -42 -1 -158h-25l-2 1q-5 73 -24 114q-22 48 -57 48z" />
    <glyph glyph-name="T" unicode="T" horiz-adv-x="434" 
d="M174 410q0 301 -4 378h-11q-24 0 -38 -11t-26 -39q-18 -39 -32 -145l-2 -1h-25q6 168 6 230q62 -2 175 -2t175 2q0 -118 6 -230h-25l-2 1q-14 101 -32 145q-12 28 -26 39t-38 11h-11q-4 -77 -4 -378q0 -300 7 -351q5 -33 37 -43l1 -2v-16q-28 2 -88 2t-88 -2v16l1 2
q32 10 37 43q7 51 7 351z" />
    <glyph glyph-name="U" unicode="U" horiz-adv-x="515" 
d="M111 410q0 300 -7 351q-5 33 -37 43l-1 2v16q28 -2 88 -2t88 2v-16l-1 -2q-32 -10 -37 -43q-7 -51 -7 -351q0 -174 3 -246q3 -66 23 -94t64 -28q81 0 81 121l2 247q0 300 -7 351q-5 33 -37 43l-1 2v16q28 -2 66 -2t66 2v-16l-1 -2q-32 -10 -37 -43q-7 -51 -7 -351v-239
q0 -91 -41 -137.5t-115 -46.5q-76 0 -113.5 44.5t-34.5 130.5q3 89 3 248z" />
    <glyph glyph-name="V" unicode="V" horiz-adv-x="465" 
d="M349 756q5 38 -16 48l-1 2v16q28 -2 57 -2q32 0 60 2v-16l-1 -2q-29 -11 -38 -48q-56 -212 -171 -771h-18q-90 477 -164 771q-10 38 -37 48l-1 2v16q28 -2 93 -2q43 0 71 2v-16l-1 -2q-24 -12 -17 -51q27 -183 91 -494q65 267 93 497z" />
    <glyph glyph-name="W" unicode="W" horiz-adv-x="624" 
d="M110 820h283q32 0 60 2v-16l-1 -2q-29 -11 -38 -48q-6 -24 -14 -58.5t-19.5 -85.5t-18.5 -84q32 -173 52 -269q68 276 96 497q5 38 -16 48l-1 2v16q28 -2 57 -2q32 0 60 2v-16l-1 -2q-29 -11 -38 -48q-70 -262 -174 -771h-18q-47 246 -68 346q-33 -146 -71 -346h-18
q-81 431 -167 771q-10 38 -37 48l-1 2v16q28 -2 93 -2zM345 801q-12 0 -19 -9t-6 -25q5 -67 26 -151q17 81 22 147q2 38 -23 38zM257 257q21 84 35 154q-39 207 -74 348q-10 40 -37 40q-14 0 -21 -9.5t-5 -26.5q20 -136 102 -506z" />
    <glyph glyph-name="X" unicode="X" horiz-adv-x="470" 
d="M208 352q-74 -210 -99 -288q-10 -33 14 -48l1 -2v-16q-28 2 -57 2q-30 0 -58 -2v16l1 2q31 12 46 46q69 155 131 347q-49 185 -111 349q-13 34 -41 46l-1 2v16q28 -2 95 -2q45 0 73 2v-16l-1 -2q-24 -15 -16 -51q10 -54 67 -236q65 166 82 239q8 34 -14 48l-1 2v16
q28 -2 57 -2q30 0 58 2v-16l-1 -2q-29 -12 -46 -48q-55 -122 -115 -294q63 -194 141 -398q13 -35 44 -48l1 -2v-16q-28 2 -102 2q-45 0 -73 -2v16l1 2q24 16 15 51q-33 116 -91 285z" />
    <glyph glyph-name="Y" unicode="Y" horiz-adv-x="431" 
d="M172 388q0 29 -40 159t-74 209q-17 38 -41 48l-1 2v16q28 -2 95 -2q45 0 73 2v-16l-1 -2q-23 -15 -15 -51q16 -85 74 -268q58 185 78 271q8 34 -14 48l-1 2v16q28 -2 57 -2q30 0 58 2v-16l-1 -2q-29 -12 -46 -48q-27 -59 -71 -199t-44 -168q0 -279 7 -330q5 -33 37 -43
l1 -2v-16q-28 2 -88 2t-88 -2v16l1 2q32 10 37 43q7 51 7 329z" />
    <glyph glyph-name="Z" unicode="Z" horiz-adv-x="480" 
d="M428 822l2 -1q-162 -440 -272 -789h97q38 0 59.5 14t36.5 44q25 50 37 137l2 1h25q-6 -112 -6 -230q-62 2 -184 2q-104 0 -175 -2l-2 1q191 557 261 789h-60q-41 0 -63.5 -14t-37.5 -44q-25 -46 -37 -137l-2 -1h-25q6 168 6 230q62 -2 177 -2q109 0 161 2z" />
    <glyph glyph-name="bracketleft" unicode="[" horiz-adv-x="328" 
d="M136 -2v824l2 2h119l2 -2v-16l-2 -2h-10q-31 0 -43.5 -13t-12.5 -47v-668q0 -34 12.5 -47t43.5 -13h10l2 -2v-16l-2 -2h-119z" />
    <glyph glyph-name="backslash" unicode="\" horiz-adv-x="287" 
d="M-9 848l1 2l26 8l2 -1l276 -867l-1 -2l-26 -8l-2 1z" />
    <glyph glyph-name="bracketright" unicode="]" horiz-adv-x="328" 
d="M192 -2l-2 -2h-119l-2 2v16l2 2h10q31 0 43.5 13t12.5 47v668q0 34 -12.5 47t-43.5 13h-10l-2 2v16l2 2h119l2 -2v-824z" />
    <glyph glyph-name="asciicircum" unicode="^" horiz-adv-x="382" 
d="M192 571q62 -117 149 -271v-3l-15 -8l-3 2q-77 147 -131 231h-2q-61 -96 -131 -231l-3 -2l-15 8v3q93 168 149 271h2z" />
    <glyph glyph-name="underscore" unicode="_" horiz-adv-x="260" 
d="M3 -10h254l2 -2v-24l-2 -2h-254l-2 2v24z" />
    <glyph glyph-name="grave" unicode="`" horiz-adv-x="197" 
d="M119 621l-103 95l2 11l70 7l3 -1l64 -97v-3l-33 -12h-3z" />
    <glyph glyph-name="a" unicode="a" horiz-adv-x="370" 
d="M347 15l1 -2v-15q-28 2 -75 2q-38 0 -66 -2v15l1 2q25 6 22 30q-10 91 -26 174q-26 2 -47 2q-12 0 -38 -2q-13 -68 -25 -159q-6 -36 13 -45l1 -2v-15q-18 2 -52 2q-27 0 -45 -2v15l1 2q29 10 37 45q44 187 91 490l2 4q40 24 67 51h9q36 -254 95 -545q7 -34 34 -45z
M159 247q15 0 41 2q-16 116 -35 224q-25 -100 -42 -224q22 -2 36 -2z" />
    <glyph glyph-name="b" unicode="b" horiz-adv-x="394" 
d="M344 165q0 -72 -45 -121t-109 -46q-44 2 -61 2q-40 0 -68 -2v15l1 2q12 6 16.5 15t7.5 30q7 51 7 230t-7 230q-5 34 -24 45l-1 2v15q28 -2 68 -2q39 0 89 2t84.5 -34.5t34.5 -92.5q0 -52 -26.5 -94.5t-69.5 -59.5q49 -10 76 -46.5t27 -89.5zM169 548q-4 -77 -4 -238h13
q34 0 52.5 33t18.5 93q0 57 -14.5 85.5t-51.5 28.5q-10 0 -14 -2zM196 30q26 0 43 30t17 88t-19.5 97t-58.5 39h-13q0 -158 5 -219q2 -19 6.5 -27t19.5 -8z" />
    <glyph glyph-name="c" unicode="c" horiz-adv-x="349" 
d="M218 25q32 0 44 21q13 21 17 71l2 1h19q0 -76 1 -101q-34 -27 -91 -27q-72 0 -116.5 75.5t-44.5 212.5q0 156 49 234t124 78q51 0 81 -27q-1 -25 -1 -101h-19l-2 1q-4 49 -16 69q-14 23 -44 23q-84 0 -84 -267q0 -263 81 -263z" />
    <glyph glyph-name="d" unicode="d" horiz-adv-x="429" 
d="M380 317q0 -162 -53.5 -242.5t-123.5 -76.5q-52 2 -74 2q-40 0 -68 -2v15l1 2q12 6 16.5 15t7.5 30q7 51 7 230t-7 230q-5 34 -24 45l-1 2v15q28 -2 68 -2t76 2q80 4 127.5 -69t47.5 -196zM205 30q49 0 68 61t19 223q0 124 -23 181.5t-70 57.5q-18 0 -30 -3
q-4 -28 -4 -260q0 -172 4 -225q1 -19 9.5 -27t26.5 -8z" />
    <glyph glyph-name="e" unicode="e" horiz-adv-x="367" 
d="M129 580q111 0 173 2q0 -48 6 -160h-19l-2 1q-4 55 -25 90q-21 37 -79 37h-14q-4 -77 -4 -245h13q30 0 43 25q14 27 17 66l2 1h19q-2 -46 -2 -105t2 -105h-19l-2 1q-3 39 -17 66q-13 25 -43 25h-13q0 -161 4 -214q1 -19 9.5 -27t26.5 -8q31 0 52 31q18 26 33 96l2 1h19
q-6 -112 -6 -160q-59 2 -176 2q-40 0 -68 -2v15l1 2q12 6 16.5 15t7.5 30q7 51 7 230t-7 230q-5 34 -24 45l-1 2v15q28 -2 68 -2z" />
    <glyph glyph-name="f" unicode="f" horiz-adv-x="349" 
d="M165 279q0 -168 7 -219q3 -21 7.5 -30t16.5 -15l1 -2v-15q-28 2 -68 2t-68 -2v15l1 2q12 6 16.5 15t7.5 30q7 51 7 230t-7 230q-5 34 -24 45l-1 2v15q28 -2 68 -2q111 0 173 2q0 -48 6 -160h-19l-2 1q-4 55 -25 90q-21 37 -79 37h-14q-4 -77 -4 -245h13q30 0 43 25
q14 27 17 66l2 1h19q-2 -46 -2 -105t2 -105h-19l-2 1q-3 39 -17 66q-13 25 -43 25h-13z" />
    <glyph glyph-name="g" unicode="g" horiz-adv-x="386" 
d="M318 18q-54 -28 -118 -28q-67 0 -109 74.5t-42 213.5q0 157 52 234.5t129 77.5q52 0 82 -27q-1 -25 -1 -101h-19l-2 1q-4 49 -16 69q-14 23 -45 23q-92 0 -92 -267q0 -73 6.5 -127t17.5 -83t23.5 -42.5t26.5 -13.5q33 0 33 25q0 105 -6 149q-3 20 -8 28t-18 13l-1 2v15
q28 -2 69 -2q30 0 51 2v-15l-1 -2q-13 -13 -14 -45q-2 -29 -2 -74v-67q0 -14 3 -20l1 -3v-10z" />
    <glyph glyph-name="h" unicode="h" horiz-adv-x="438" 
d="M219 301q32 0 54 2q0 166 -7 217q-5 34 -24 45l-1 2v15q28 -2 68 -2t68 2v-15l-1 -2q-19 -11 -24 -45q-7 -51 -7 -230t7 -230q3 -21 7.5 -30t16.5 -15l1 -2v-15q-28 2 -68 2t-68 -2v15l1 2q12 6 16.5 15t7.5 30q7 49 7 213q-38 2 -54 2t-54 -2q0 -164 7 -213
q3 -21 7.5 -30t16.5 -15l1 -2v-15q-28 2 -68 2t-68 -2v15l1 2q12 6 16.5 15t7.5 30q7 51 7 230t-7 230q-5 34 -24 45l-1 2v15q28 -2 68 -2t68 2v-15l-1 -2q-19 -11 -24 -45q-7 -51 -7 -217q22 -2 54 -2z" />
    <glyph glyph-name="i" unicode="i" horiz-adv-x="258" 
d="M165 290q0 -179 7 -230q3 -21 7.5 -30t16.5 -15l1 -2v-15q-28 2 -68 2t-68 -2v15l1 2q12 6 16.5 15t7.5 30q7 51 7 230t-7 230q-5 34 -24 45l-1 2v15q28 -2 68 -2t68 2v-15l-1 -2q-19 -11 -24 -45q-7 -51 -7 -230z" />
    <glyph glyph-name="j" unicode="j" horiz-adv-x="267" 
d="M106 290q0 179 -7 230q-5 34 -24 45l-1 2v15q28 -2 68 -2t68 2v-15l-1 -2q-19 -11 -24 -45q-7 -51 -7 -230q0 -124 3 -191q3 -74 -33.5 -122.5t-96.5 -66.5l-2 1l-6 14l1 3q62 35 62 157v205z" />
    <glyph glyph-name="k" unicode="k" horiz-adv-x="395" 
d="M165 294q68 123 111 232q11 29 -6 39l-1 2v15q17 -2 43 -2q31 0 59 2v-15l-1 -2q-31 -11 -51 -46q-51 -90 -96 -188q66 -178 113 -270q19 -38 52 -46l1 -2v-15q-28 2 -127 2l-2 2q-38 116 -95 256q0 -149 7 -198q3 -21 7.5 -30t16.5 -15l1 -2v-15q-28 2 -68 2t-68 -2v15
l1 2q12 6 16.5 15t7.5 30q7 51 7 230t-7 230q-5 34 -24 45l-1 2v15q28 -2 68 -2t68 2v-15l-1 -2q-19 -11 -24 -45q-7 -51 -7 -226z" />
    <glyph glyph-name="l" unicode="l" horiz-adv-x="340" 
d="M129 0q-40 0 -68 -2v15l1 2q12 6 16.5 15t7.5 30q7 51 7 230t-7 230q-5 34 -24 45l-1 2v15q28 -2 68 -2t68 2v-15l-1 -2q-19 -11 -24 -45q-7 -51 -7 -230q0 -172 4 -225q1 -19 9.5 -27t26.5 -8q31 0 52 31q18 26 33 96l2 1h19q-6 -112 -6 -160q-59 2 -176 2z" />
    <glyph glyph-name="m" unicode="m" horiz-adv-x="531" 
d="M260 187q61 247 84 393h58q40 0 68 2v-15l-1 -2q-19 -11 -24 -45q-7 -51 -7 -230t7 -230q5 -36 24 -45l1 -2v-15q-28 2 -68 2t-68 -2v15l1 2q19 9 24 45q7 51 7 230q0 186 3 230q-67 -263 -120 -531l-2 -1h-11l-2 1q-59 262 -110 442q2 -40 2 -141q0 -179 7 -230
q5 -36 24 -45l1 -2v-15q-18 2 -50 2t-50 -2v15l1 2q19 9 24 45q7 51 7 230t-7 230q-5 34 -24 45l-1 2v15q28 -2 68 -2h36q9 -81 98 -393z" />
    <glyph glyph-name="n" unicode="n" horiz-adv-x="402" 
d="M126 580h26q18 -63 92 -239q25 -62 39 -113q-2 31 -2 62q0 179 -7 230q-5 34 -24 45l-1 2v15q18 -2 50 -2t50 2v-15l-1 -2q-19 -11 -24 -45q-7 -51 -7 -230q0 -216 2 -302h-12l-2 1q-90 228 -181 442q2 -35 2 -141q0 -179 7 -230q5 -36 24 -45l1 -2v-15q-18 2 -50 2
t-50 -2v15l1 2q19 9 24 45q7 51 7 230t-7 230q-5 34 -24 45l-1 2v15q28 -2 68 -2z" />
    <glyph glyph-name="o" unicode="o" horiz-adv-x="398" 
d="M200 590q71 0 110 -80.5t39 -202.5q0 -156 -41.5 -236.5t-109.5 -80.5q-72 0 -110.5 74t-38.5 214q0 158 39.5 235t111.5 77zM200 24q35 0 48 59t13 215q0 133 -13.5 195t-48.5 62q-36 0 -49 -56t-13 -211q0 -145 14 -204.5t49 -59.5z" />
    <glyph glyph-name="p" unicode="p" horiz-adv-x="362" 
d="M188 277q-8 11 -9 16q-1 7 7 10q66 24 66 118q0 129 -69 129q-10 0 -14 -2q-4 -61 -4 -251q0 -186 7 -237q3 -21 7.5 -30t16.5 -15l1 -2v-15q-28 2 -68 2t-68 -2v15l1 2q12 6 16.5 15t7.5 30q7 51 7 230t-7 230q-5 34 -24 45l-1 2v15q28 -2 68 -2q39 0 89 2
q51 2 86.5 -39t35.5 -104q0 -62 -44 -108t-108 -54z" />
    <glyph glyph-name="q" unicode="q" horiz-adv-x="389" 
d="M190 -65h3q21 12 40 12q25 0 51 -25q34 -31 65 -31q26 0 47.5 12.5t48.5 41.5l-8 8h-4q-27 -18 -58 -18q-27 0 -55 26q-27 26 -60 26q-31 0 -78 -42zM200 590q71 0 110 -80.5t39 -202.5q0 -156 -41.5 -236.5t-109.5 -80.5q-72 0 -110.5 74t-38.5 214q0 158 39.5 235
t111.5 77zM200 24q35 0 48 59t13 215q0 133 -13.5 195t-48.5 62q-36 0 -49 -56t-13 -211q0 -145 14 -204.5t49 -59.5z" />
    <glyph glyph-name="r" unicode="r" horiz-adv-x="388" 
d="M366 15l1 -2v-15q-28 2 -116 2q-18 131 -42 266q-5 31 -31 31h-13q0 -186 7 -237q3 -21 7.5 -30t16.5 -15l1 -2v-15q-28 2 -68 2t-68 -2v15l1 2q12 6 16.5 15t7.5 30q7 51 7 230t-7 230q-5 34 -24 45l-1 2v15q28 -2 68 -2q39 0 89 2t84 -34.5t34 -92.5q0 -51 -25.5 -87.5
t-69.5 -53.5q20 -5 35 -21t18 -36q14 -92 37 -197q7 -31 35 -45zM169 548q-4 -77 -4 -225h13q74 0 74 113q0 114 -69 114q-10 0 -14 -2z" />
    <glyph glyph-name="s" unicode="s" horiz-adv-x="318" 
d="M171 555q-23 0 -37 -18t-14 -51q0 -37 14.5 -69t47.5 -77q83 -113 83 -185q0 -79 -38 -123t-98 -44q-48 0 -81 22q2 50 2 106h19l2 -1q6 -45 19 -67q14 -25 41 -25q29 0 41.5 20.5t12.5 65.5q0 76 -61 158q-68 91 -68 171q0 68 33.5 110t86.5 42q52 0 77 -22
q-1 -25 -1 -106h-19l-2 1q-4 48 -17 69q-14 23 -43 23z" />
    <glyph glyph-name="t" unicode="t" horiz-adv-x="348" 
d="M213 552q-3 -58 -3 -262q0 -179 7 -230q5 -36 24 -45l1 -2v-15q-28 2 -68 2t-68 -2v15l1 2q19 9 24 45q7 51 7 230q0 204 -3 262h-11q-33 0 -52 -33q-17 -30 -22 -96l-2 -1h-19q1 20 2.5 55t2.5 61.5t1 43.5q51 -2 139 -2q87 0 139 2q0 -48 6 -160h-19l-2 1q-5 66 -22 96
q-19 33 -52 33h-11z" />
    <glyph glyph-name="u" unicode="u" horiz-adv-x="404" 
d="M160 290q0 -141 2 -184q3 -84 64 -84q29 0 44 23t15 58v187q0 179 -7 230q-5 34 -24 45l-1 2v15q18 -2 50 -2t50 2v-15l-1 -2q-19 -11 -24 -45q-7 -51 -7 -230q0 -137 2 -171q3 -62 -28 -95.5t-92 -33.5q-58 0 -89.5 36t-29.5 94q2 65 2 170q0 179 -7 230q-5 34 -24 45
l-1 2v15q28 -2 69 -2t69 2v-15l-1 -2q-19 -11 -24 -45q-7 -51 -7 -230z" />
    <glyph glyph-name="v" unicode="v" horiz-adv-x="355" 
d="M180 -15h-18l-2 2q-55 294 -115 533q-8 35 -34 45l-1 2v15q28 -2 75 -2q38 0 66 2v-15l-1 -2q-27 -7 -24 -30q5 -51 69 -351q62 275 70 336q4 37 -14 45l-1 2v15q18 -2 52 -2q27 0 45 2v-15l-1 -2q-27 -9 -37 -45q-57 -212 -127 -533z" />
    <glyph glyph-name="w" unicode="w" horiz-adv-x="471" 
d="M240 217l-54 -230l-2 -2h-18l-2 2q-53 284 -119 533q-10 35 -34 45l-1 2v15q55 -2 197 -2q99 0 143 2v-15l-1 -2q-13 -4 -19.5 -13.5t-11.5 -31.5l-41 -158q14 -71 36 -171q64 284 70 329q3 19 1 30t-11 15l-1 2v15q18 -2 46 -2q27 0 45 2v-15l-1 -2q-29 -10 -37 -45
q-73 -295 -122 -533l-2 -2h-18l-2 2zM261 566q-9 0 -14.5 -6t-4.5 -16q3 -31 22 -127q15 78 19 114q2 16 -4.5 25.5t-17.5 9.5zM201 174l26 111q-41 191 -56 250q-8 29 -29 29q-11 0 -17 -7t-5 -19q8 -50 81 -364z" />
    <glyph glyph-name="x" unicode="x" horiz-adv-x="360" 
d="M149 289q-48 148 -86 238q-13 31 -40 38l-1 2v15q28 -2 78 -2q36 0 64 2v-15l-1 -2q-27 -7 -22 -30q12 -47 53 -164q42 109 54 154q8 33 -12 40l-1 2v15q18 -2 51 -2q28 0 46 2v-15l-1 -2q-27 -9 -39 -38q-40 -91 -80 -211q45 -134 96 -263q10 -26 42 -38l1 -2v-15
q-28 2 -81 2q-40 0 -68 -2v15l1 2q24 6 18 30q-14 68 -56 190q-50 -113 -69 -175q-11 -35 10 -45l1 -2v-15q-18 2 -53 2q-34 0 -52 -2v15l1 2q30 10 43 38q68 148 103 236z" />
    <glyph glyph-name="y" unicode="y" horiz-adv-x="337" 
d="M286 580q27 0 45 2v-15l-1 -2q-29 -10 -39 -38q-59 -157 -83 -240q-7 -23 -7 -32q0 -146 7 -195q3 -21 7.5 -30t16.5 -15l1 -2v-15q-28 2 -68 2t-68 -2v15l1 2q12 6 16.5 15t7.5 30q7 49 7 197q0 15 -4 31q-25 96 -76 239q-6 17 -14 24.5t-23 13.5l-1 2v15q28 -2 75 -2
q36 0 64 2v-15l-1 -2q-26 -6 -20 -30q21 -85 61 -203q48 139 59 188q8 35 -13 45l-1 2v15q18 -2 51 -2z" />
    <glyph glyph-name="z" unicode="z" horiz-adv-x="385" 
d="M179 0q-65 0 -139 -2l-2 2q98 245 195 550h-41q-58 0 -79 -37q-21 -35 -25 -90l-2 -1h-19q1 20 2.5 55t2.5 61.5t1 43.5q62 -2 133 -2q81 0 128 2l2 -2q-97 -248 -196 -550h67q58 0 79 37q21 35 25 90l2 1h19q-6 -112 -6 -160q-62 2 -147 2z" />
    <glyph glyph-name="braceleft" unicode="{" horiz-adv-x="338" 
d="M103 402v12l2 2q74 13 66 98l-16 190q-5 60 31 98t87 42l2 -2v-15l-2 -2q-38 -11 -53.5 -37.5t-10.5 -75.5l16 -164q11 -108 -84 -138q93 -31 82 -138l-16 -164q-10 -92 66 -113l2 -2v-15l-2 -2q-51 4 -88 42t-32 98l16 190q7 81 -64 94z" />
    <glyph glyph-name="bar" unicode="|" horiz-adv-x="386" 
d="M208 842v-864l-2 -2h-26l-2 2v864l2 2h26z" />
    <glyph glyph-name="braceright" unicode="}" horiz-adv-x="338" 
d="M235 418v-12l-2 -2q-74 -13 -66 -98l16 -190q5 -60 -31 -98t-87 -42l-2 2v15l2 2q38 11 53.5 37.5t10.5 75.5l-16 164q-11 107 84 138q-93 29 -82 138l16 164q10 92 -66 113l-2 2v15l2 2q51 -4 88 -42t32 -98l-16 -190q-7 -81 64 -94z" />
    <glyph glyph-name="asciitilde" unicode="~" horiz-adv-x="427" 
d="M204 350q-35 35 -50 45.5t-33 10.5t-33.5 -14.5t-37.5 -52.5l-3 -1l-10 5l-1 3q24 45 45.5 65t48.5 20q22 0 42.5 -13.5t50.5 -43.5q35 -35 50 -45.5t33 -10.5t33.5 14.5t37.5 52.5l3 1l10 -5l1 -3q-24 -45 -45.5 -65t-48.5 -20q-38 0 -93 57z" />
    <glyph glyph-name="yen" unicode="&#xa5;" 
d="M374 820q30 0 58 2v-16l-1 -2q-29 -12 -46 -48q-46 -105 -99 -293h82l2 -2v-24l-2 -2h-90q-9 -33 -9 -46v-5h99l2 -2v-24l-2 -2h-98q0 -248 7 -297q5 -33 37 -43l1 -2v-16q-28 2 -88 2t-88 -2v16l1 2q32 10 37 43q7 49 7 297h-92l-2 2v24l2 2h93v4q0 14 -9 47h-84l-2 2
v24l2 2h76q-43 167 -98 293q-17 38 -41 48l-1 2v16q28 -2 95 -2q45 0 73 2v-16l-1 -2q-23 -15 -15 -51q20 -102 74 -286q68 243 78 289q8 34 -14 48l-1 2v16q28 -2 57 -2z" />
    <glyph glyph-name="quoteleft" unicode="&#x2018;" horiz-adv-x="210" 
d="M137 671q-27 0 -43.5 17t-16.5 51q0 37 26.5 73.5t67.5 62.5l10 -11v-2q-22 -36 -29 -58t-7 -52q0 -44 28 -56l2 -2v-17q-15 -6 -38 -6z" />
    <glyph glyph-name="quoteright" unicode="&#x2019;" horiz-adv-x="210" 
d="M73 875q26 0 43 -17t17 -51q0 -38 -26.5 -74.5t-67.5 -61.5l-10 11v2q22 35 29 57.5t7 52.5q0 43 -28 56l-2 2v17q20 6 38 6z" />
    <glyph glyph-name="quotedblleft" unicode="&#x201c;" horiz-adv-x="350" 
d="M277 671q-27 0 -43.5 17t-16.5 51q0 37 26.5 73.5t67.5 62.5l10 -11v-2q-22 -36 -29 -58t-7 -52q0 -44 28 -56l2 -2v-17q-15 -6 -38 -6zM137 671q-27 0 -43.5 17t-16.5 51q0 37 26.5 73.5t67.5 62.5l10 -11v-2q-22 -36 -29 -58t-7 -52q0 -44 28 -56l2 -2v-17
q-15 -6 -38 -6z" />
    <glyph glyph-name="quotedblright" unicode="&#x201d;" horiz-adv-x="350" 
d="M73 875q26 0 43 -17t17 -51q0 -38 -26.5 -74.5t-67.5 -61.5l-10 11v2q22 35 29 57.5t7 52.5q0 43 -28 56l-2 2v17q20 6 38 6zM213 875q26 0 43 -17t17 -51q0 -38 -26.5 -74.5t-67.5 -61.5l-10 11v2q22 35 29 57.5t7 52.5q0 43 -28 56l-2 2v17q20 6 38 6z" />
    </font>
</defs>
</svg>
